<?xml version="1.0" standalone="no"?>
<!DOCTYPE svg PUBLIC "-//W3C//DTD SVG 20010904//EN"
 "http://www.w3.org/TR/2001/REC-SVG-20010904/DTD/svg10.dtd">
<svg version="1.0" xmlns="http://www.w3.org/2000/svg"
 width="71.000000pt" height="71.000000pt" viewBox="0 0 71.000000 71.000000"
 preserveAspectRatio="xMidYMid meet">
<metadata>
Created by potrace 1.11, written by Peter Selinger 2001-2013
</metadata>
<g transform="translate(0.000000,71.000000) scale(0.100000,-0.100000)"
fill="#000000" stroke="none">
<path d="M221 581 c-9 -17 -55 -166 -67 -213 -5 -24 -3 -28 15 -28 13 0 26 10
33 25 9 20 18 25 50 25 31 0 41 -5 50 -25 15 -34 63 -36 55 -2 -13 56 -51 183
-63 212 -11 25 -61 29 -73 6z m50 -144 c-5 -5 -18 -7 -29 -5 -19 3 -19 5 -4
53 l16 49 13 -44 c7 -25 9 -48 4 -53z"/>
<path d="M394 589 c-2 -4 0 -10 5 -14 6 -3 7 -15 1 -29 -4 -12 -5 -28 0 -35 4
-7 5 -27 1 -45 -3 -17 -6 -51 -6 -76 l1 -45 79 0 c67 0 78 3 81 18 2 18 0 19
-59 20 -44 0 -46 6 -46 117 1 41 0 80 0 86 -1 11 -50 14 -57 3z"/>
<path d="M102 308 c-9 -4 -13 -7 -8 -7 5 -1 3 -7 -3 -15 -7 -8 -8 -16 -4 -19
4 -2 124 -4 266 -4 241 0 257 1 257 18 0 10 -6 21 -12 26 -16 9 -472 11 -496
1z"/>
<path d="M173 153 c-13 -35 1 -38 180 -38 156 0 176 1 180 16 3 9 2 21 -2 26
-3 5 -84 9 -180 9 -131 0 -174 -3 -178 -13z"/>
</g>
</svg>
